REM DIRINDEX 1\4,1\2\5,1\2\6,1\2\7,1\3\8,1\3\9,1\3\10,1\3\11
REM DIRNAME folder01,folder02,folder03,folder04,folder05,folder06,folder07,folder08,folder09,folder10,folder11
TITLE ""
FILE "t_j_37.mp3" MP3
  TRACK 01 AUDIO
    TITLE "8:cjc108_2641"
    INDEX 01 00:00:00
  TRACK 02 AUDIO
    TITLE "0:"
    INDEX 01 00:02:36
  TRACK 03 AUDIO
    TITLE "9:cjc108_2642"
    INDEX 01 00:03:51
  TRACK 04 AUDIO
    TITLE "0:"
    INDEX 01 00:04:66
  TRACK 05 AUDIO
    TITLE "10:cjc108_2643"
    INDEX 01 00:05:09
  TRACK 06 AUDIO
    TITLE "0:"
    INDEX 01 00:06:35
  TRACK 07 AUDIO
    TITLE "9:cjc108_2644"
    INDEX 01 00:07:11
  TRACK 08 AUDIO
    TITLE "0:"
    INDEX 01 00:08:50
  TRACK 09 AUDIO
    TITLE "10:cjc108_2645"
    INDEX 01 00:08:52
  TRACK 10 AUDIO
    TITLE "0:"
    INDEX 01 00:09:59
  TRACK 11 AUDIO
    TITLE "11:cjc108_2646"
    INDEX 01 00:10:33
  TRACK 12 AUDIO
    TITLE "0:"
    INDEX 01 00:14:39
  TRACK 13 AUDIO
    TITLE "9:cjc108_2647"
    INDEX 01 00:16:20
  TRACK 14 AUDIO
    TITLE "0:"
    INDEX 01 00:17:31
  TRACK 15 AUDIO
    TITLE "10:cjc108_2648"
    INDEX 01 00:17:47
  TRACK 16 AUDIO
    TITLE "0:"
    INDEX 01 00:20:47
  TRACK 17 AUDIO
    TITLE "9:cjc108_2649"
    INDEX 01 00:21:19
  TRACK 18 AUDIO
    TITLE "0:"
    INDEX 01 00:22:34
  TRACK 19 AUDIO
    TITLE "10:cjc108_2650"
    INDEX 01 00:22:36
  TRACK 20 AUDIO
    TITLE "0:"
    INDEX 01 00:26:42
  TRACK 21 AUDIO
    TITLE "9:cjc108_2651"
    INDEX 01 00:27:24
  TRACK 22 AUDIO
    TITLE "0:"
    INDEX 01 00:28:37
  TRACK 23 AUDIO
    TITLE "10:cjc108_2652"
    INDEX 01 00:28:47
  TRACK 24 AUDIO
    TITLE "0:"
    INDEX 01 00:29:58
  TRACK 25 AUDIO
    TITLE "9:cjc108_2653"
    INDEX 01 00:30:34
  TRACK 26 AUDIO
    TITLE "0:"
    INDEX 01 00:31:61
  TRACK 27 AUDIO
    TITLE "10:cjc108_2654"
    INDEX 01 00:31:67
  TRACK 28 AUDIO
    TITLE "0:"
    INDEX 01 00:33:60
  TRACK 29 AUDIO
    TITLE "11:cjc108_2655"
    INDEX 01 00:34:38
  TRACK 30 AUDIO
    TITLE "0:"
    INDEX 01 00:40:58
  TRACK 31 AUDIO
    TITLE "9:cjc108_2656"
    INDEX 01 00:42:33
  TRACK 32 AUDIO
    TITLE "0:"
    INDEX 01 00:44:16
  TRACK 33 AUDIO
    TITLE "10:cjc108_2657"
    INDEX 01 00:44:28
  TRACK 34 AUDIO
    TITLE "0:"
    INDEX 01 00:46:72
  TRACK 35 AUDIO
    TITLE "9:cjc108_2658"
    INDEX 01 00:47:50
  TRACK 36 AUDIO
    TITLE "0:"
    INDEX 01 00:48:59
  TRACK 37 AUDIO
    TITLE "10:cjc108_2659"
    INDEX 01 00:48:69
  TRACK 38 AUDIO
    TITLE "0:"
    INDEX 01 00:51:16
  TRACK 39 AUDIO
    TITLE "9:cjc108_2660"
    INDEX 01 00:51:67
  TRACK 40 AUDIO
    TITLE "0:"
    INDEX 01 00:53:23
  TRACK 41 AUDIO
    TITLE "10:cjc108_2661"
    INDEX 01 00:53:25
  TRACK 42 AUDIO
    TITLE "0:"
    INDEX 01 00:54:30
  TRACK 43 AUDIO
    TITLE "9:cjc108_2662"
    INDEX 01 00:55:03
  TRACK 44 AUDIO
    TITLE "0:"
    INDEX 01 00:56:29
  TRACK 45 AUDIO
    TITLE "10:cjc108_2663"
    INDEX 01 00:56:33
  TRACK 46 AUDIO
    TITLE "0:"
    INDEX 01 00:57:52
  TRACK 47 AUDIO
    TITLE "9:cjc108_2664"
    INDEX 01 00:58:28
  TRACK 48 AUDIO
    TITLE "0:"
    INDEX 01 00:59:57
  TRACK 49 AUDIO
    TITLE "10:cjc108_2665"
    INDEX 01 01:00:00
  TRACK 50 AUDIO
    TITLE "0:"
    INDEX 01 01:02:22
  TRACK 51 AUDIO
    TITLE "9:cjc108_2666"
    INDEX 01 01:03:00
  TRACK 52 AUDIO
    TITLE "0:"
    INDEX 01 01:04:31
  TRACK 53 AUDIO
    TITLE "10:cjc108_2667"
    INDEX 01 01:04:50
  TRACK 54 AUDIO
    TITLE "0:"
    INDEX 01 01:05:69
  TRACK 55 AUDIO
    TITLE "11:cjc108_2668"
    INDEX 01 01:06:47
  TRACK 56 AUDIO
    TITLE "0:"
    INDEX 01 01:15:54
  TRACK 57 AUDIO
    TITLE "9:cjc108_2669"
    INDEX 01 01:17:28
  TRACK 58 AUDIO
    TITLE "0:"
    INDEX 01 01:18:49
  TRACK 59 AUDIO
    TITLE "10:cjc108_2670"
    INDEX 01 01:18:58
  TRACK 60 AUDIO
    TITLE "0:"
    INDEX 01 01:20:63
  TRACK 61 AUDIO
    TITLE "9:cjc108_2671"
    INDEX 01 01:21:37
  TRACK 62 AUDIO
    TITLE "0:"
    INDEX 01 01:22:42
  TRACK 63 AUDIO
    TITLE "10:cjc108_2672"
    INDEX 01 01:22:44
  TRACK 64 AUDIO
    TITLE "0:"
    INDEX 01 01:23:63
  TRACK 65 AUDIO
    TITLE "11:cjc108_2673"
    INDEX 01 01:24:41
  TRACK 66 AUDIO
    TITLE "0:"
    INDEX 01 01:31:06
